# xmcd
#
# Track frame offsets:
#	150
#	13502
#	31006
#	48836
#	63075
#	85061
#	97758
#	114243
#	129675
#	147936
#	161634
#	179145
#	193165
#	208855
#	220956
#	237024
#	253765
#	270500
#	285882
#	301314
#	316599
#	335105
#
# Disc length: 4652 seconds
#
# Revision: 0
# Processed by: cddbd v1.5.2PL0 Copyright (c) Steve Scherf et al.
# Submitted via: dBpowerAMP V4.0
#
DISCID=2f122a16
DTITLE=Various Artist - ERG Nu Country Traxx Vol. 185 CAN
DYEAR=2009
DGENRE=Country
TTITLE0=George Strait - Twang
TTITLE1=Deric Ruttan - Sing That Song Again
TTITLE2=Jason Aldean - The Truth
TTITLE3=George Canyon - Betty's Buns
TTITLE4=Rascal Flatts - Why
TTITLE5=Eric Church - Hell On The Heart
TTITLE6=Gord Bamford - Hurtin' Me Back
TTITLE7=Sierra Noble - Try Anything
TTITLE8=Doc Walker - If I Fall
TTITLE9=Shane Yellowbird - Bare Feet On The Blacktop
TTITLE10=Jack Ingram - Seeing Stars
TTITLE11=Hank Williams Jr. ft. The Grascals - All The Roads
TTITLE12=Gloriana - How Far Do You Wanna Go
TTITLE13=Justin Moore - Backwoods
TTITLE14=Wyatt - Ride On
TTITLE15=Matt Kennon - The Call
TTITLE16=Jimmy Wayne ft. Daryl Hall And John Oates - Sara Smile
TTITLE17=Ash Bowers - Stuck
TTITLE18=Dean Brody - Undone
TTITLE19=Greg Hanna - It's A Man's Job
TTITLE20=Blaine Larsen - It Did
TTITLE21=Marlee Scott - Yesterday, Today and Tomorrow
EXTD=
EXTT0=
EXTT1=
EXTT2=
EXTT3=
EXTT4=
EXTT5=
EXTT6=
EXTT7=
EXTT8=
EXTT9=
EXTT10=
EXTT11=
EXTT12=
EXTT13=
EXTT14=
EXTT15=
EXTT16=
EXTT17=
EXTT18=
EXTT19=
EXTT20=
EXTT21=
PLAYORDER=
